<?xml version="1.0" standalone="no"?>
<!DOCTYPE svg PUBLIC "-//W3C//DTD SVG 20010904//EN"
 "http://www.w3.org/TR/2001/REC-SVG-20010904/DTD/svg10.dtd">
<svg version="1.0" xmlns="http://www.w3.org/2000/svg"
 width="512.000000pt" height="512.000000pt" viewBox="0 0 512.000000 512.000000"
 preserveAspectRatio="xMidYMid meet">
<metadata>
Created by potrace 1.16, written by Peter Selinger 2001-2019
</metadata>
<g transform="translate(0.000000,512.000000) scale(0.100000,-0.100000)"
fill="#000000" stroke="none">
<path d="M203 4958 c-174 -172 -196 -198 -191 -231 3 -19 32 5 192 163 103
102 192 193 197 203 8 14 5 17 -17 17 -21 0 -60 -33 -181 -152z"/>
<path d="M303 4858 c-140 -139 -264 -265 -275 -281 -10 -15 -18 -37 -16 -50 3
-18 49 23 292 263 158 157 292 293 297 303 8 14 5 17 -17 17 -22 0 -75 -47
-281 -252z"/>
<path d="M402 4758 c-194 -194 -362 -365 -373 -381 -11 -15 -19 -37 -17 -50 4
-18 54 28 322 293 234 232 311 303 292 270 -14 -25 -31 -70 -37 -100 -12 -54
-16 -59 -296 -341 -229 -231 -283 -291 -283 -312 0 -15 3 -27 7 -27 4 0 132
125 285 277 l278 278 0 -65 0 -64 -285 -286 c-231 -232 -285 -292 -285 -313 0
-15 3 -27 7 -27 4 0 132 125 285 277 l278 278 0 -65 0 -64 -285 -286 c-231
-232 -285 -292 -285 -313 0 -15 3 -27 7 -27 4 0 132 125 285 277 l278 278 0
-65 0 -64 -285 -286 c-231 -232 -285 -292 -285 -313 0 -15 3 -27 7 -27 4 0
132 125 285 277 l278 278 0 -65 0 -64 -285 -286 c-231 -232 -285 -292 -285
-313 0 -15 3 -27 7 -27 4 0 132 125 285 277 l278 278 0 -65 0 -64 -285 -286
c-231 -232 -285 -292 -285 -313 0 -15 3 -27 7 -27 4 0 132 125 285 277 l278
278 0 -65 0 -64 -285 -286 c-231 -232 -285 -292 -285 -313 0 -15 3 -27 7 -27
4 0 132 125 285 277 l278 278 0 -65 0 -64 -285 -286 c-231 -232 -285 -292
-285 -313 0 -15 3 -27 7 -27 4 0 132 125 285 277 l278 278 0 -65 0 -64 -285
-286 c-231 -232 -285 -292 -285 -313 0 -15 3 -27 7 -27 4 0 132 125 285 277
l278 278 0 -65 0 -64 -285 -286 c-231 -232 -285 -292 -285 -313 0 -15 3 -27 7
-27 4 0 132 125 285 277 l278 278 0 -65 0 -64 -285 -286 c-231 -232 -285 -292
-285 -313 0 -15 3 -27 7 -27 4 0 132 125 285 277 l278 278 0 -65 0 -64 -285
-286 c-231 -232 -285 -292 -285 -313 0 -15 3 -27 7 -27 4 0 132 125 285 277
l278 278 0 -65 0 -64 -285 -286 c-231 -232 -285 -292 -285 -313 0 -15 3 -27 7
-27 4 0 132 125 285 277 l278 278 0 -65 0 -64 -285 -286 c-231 -232 -285 -292
-285 -313 0 -15 3 -27 7 -27 4 0 132 125 285 277 l278 278 0 -65 0 -64 -285
-286 c-231 -232 -285 -292 -285 -313 0 -15 3 -27 7 -27 4 0 132 125 285 277
l278 278 0 -65 0 -64 -285 -286 c-231 -232 -285 -292 -285 -313 0 -15 3 -27 7
-27 4 0 132 125 285 277 l278 278 0 -65 0 -64 -285 -286 c-231 -232 -285 -292
-285 -313 0 -15 3 -27 7 -27 4 0 132 125 285 277 l278 278 0 -65 0 -64 -285
-286 c-231 -232 -285 -292 -285 -313 0 -15 3 -27 7 -27 4 0 132 125 285 277
l278 278 0 -65 0 -64 -285 -286 c-231 -232 -285 -292 -285 -313 0 -15 3 -27 7
-27 4 0 132 125 285 277 l278 278 0 -65 0 -64 -285 -286 c-231 -232 -285 -292
-285 -313 0 -15 3 -27 7 -27 4 0 132 125 285 277 l278 278 0 -65 0 -64 -285
-286 c-231 -232 -285 -292 -285 -313 0 -15 3 -27 7 -27 4 0 132 125 285 277
l278 278 0 -65 0 -65 -251 -250 c-137 -138 -255 -258 -260 -267 -8 -15 -5 -18
17 -18 22 0 72 44 260 231 l232 231 4 -61 3 -61 -153 -153 c-84 -83 -158 -160
-163 -169 -8 -15 -5 -18 17 -18 20 0 58 31 170 142 79 78 145 140 146 137 2
-2 12 -21 22 -42 l19 -37 -91 -94 c-51 -51 -92 -96 -92 -100 0 -3 11 -6 25 -6
18 0 49 23 108 79 l82 79 37 -27 37 -28 -35 -34 c-20 -19 -40 -42 -45 -51 -19
-35 36 -20 83 22 43 37 47 39 79 28 19 -6 40 -13 47 -14 10 -3 9 -10 -4 -29
-16 -24 -16 -25 6 -25 13 0 38 11 56 25 27 20 44 25 94 25 l60 0 -16 -25 c-16
-24 -16 -25 6 -25 13 0 38 11 56 25 27 20 44 25 94 25 l60 0 -16 -25 c-16 -24
-16 -25 6 -25 13 0 38 11 56 25 27 20 44 25 94 25 l60 0 -16 -25 c-16 -24 -16
-25 6 -25 13 0 38 11 56 25 27 20 44 25 94 25 l60 0 -16 -25 c-16 -24 -16 -25
6 -25 13 0 38 11 56 25 27 20 44 25 94 25 l60 0 -16 -25 c-16 -24 -16 -25 6
-25 13 0 38 11 56 25 27 20 44 25 94 25 l60 0 -16 -25 c-16 -24 -16 -25 6 -25
13 0 38 11 56 25 27 20 44 25 94 25 l60 0 -16 -25 c-16 -24 -16 -25 6 -25 13
0 38 11 56 25 27 20 44 25 94 25 l60 0 -16 -25 c-16 -24 -16 -25 6 -25 13 0
38 11 56 25 27 20 44 25 94 25 l60 0 -16 -25 c-16 -24 -16 -25 6 -25 13 0 38
11 56 25 27 20 44 25 94 25 l60 0 -16 -25 c-16 -24 -16 -25 6 -25 13 0 38 11
56 25 27 20 44 25 94 25 l60 0 -16 -25 c-16 -24 -16 -25 6 -25 13 0 38 11 56
25 27 20 44 25 94 25 l60 0 -16 -25 c-16 -24 -16 -25 6 -25 13 0 38 11 56 25
27 20 44 25 94 25 l60 0 -16 -25 c-16 -24 -16 -25 6 -25 13 0 38 11 56 25 27
20 44 25 94 25 l60 0 -16 -25 c-16 -24 -16 -25 6 -25 13 0 38 11 56 25 27 20
44 25 94 25 l60 0 -16 -25 c-16 -24 -16 -25 6 -25 13 0 38 11 56 25 27 20 44
25 94 25 l60 0 -16 -25 c-16 -24 -16 -25 6 -25 13 0 38 11 56 25 18 14 46 25
62 25 16 0 50 6 76 14 l46 14 -32 -36 c-31 -36 -31 -37 -10 -40 12 -2 34 6 49
17 16 11 200 192 410 403 314 315 383 389 383 411 0 15 -3 27 -7 27 -4 0 -143
-136 -310 -302 -297 -296 -302 -301 -288 -253 8 26 15 62 15 79 0 26 37 68
295 326 240 241 295 301 295 323 0 15 -3 27 -7 27 -4 0 -137 -129 -295 -287
l-288 -288 0 65 0 64 295 296 c240 241 295 301 295 323 0 15 -3 27 -7 27 -4 0
-137 -129 -295 -287 l-288 -288 0 65 0 64 295 296 c240 241 295 301 295 323 0
15 -3 27 -7 27 -4 0 -137 -129 -295 -287 l-288 -288 0 65 0 64 295 296 c240
241 295 301 295 323 0 15 -3 27 -7 27 -4 0 -137 -129 -295 -287 l-288 -288 0
65 0 64 295 296 c240 241 295 301 295 323 0 15 -3 27 -7 27 -4 0 -137 -129
-295 -287 l-288 -288 0 65 0 64 295 296 c240 241 295 301 295 323 0 15 -3 27
-7 27 -4 0 -137 -129 -295 -287 l-288 -288 0 65 0 64 295 296 c240 241 295
301 295 323 0 15 -3 27 -7 27 -4 0 -137 -129 -295 -287 l-288 -288 0 65 0 64
295 296 c240 241 295 301 295 323 0 15 -3 27 -7 27 -4 0 -137 -129 -295 -287
l-288 -288 0 65 0 64 295 296 c240 241 295 301 295 323 0 15 -3 27 -7 27 -4 0
-137 -129 -295 -287 l-288 -288 0 65 0 64 295 296 c240 241 295 301 295 323 0
15 -3 27 -7 27 -4 0 -137 -129 -295 -287 l-288 -288 0 65 0 64 295 296 c240
241 295 301 295 323 0 15 -3 27 -7 27 -4 0 -137 -129 -295 -287 l-288 -288 0
65 0 64 295 296 c240 241 295 301 295 323 0 15 -3 27 -7 27 -4 0 -137 -129
-295 -287 l-288 -288 0 65 0 64 295 296 c240 241 295 301 295 323 0 15 -3 27
-7 27 -4 0 -137 -129 -295 -287 l-288 -288 0 65 0 64 295 296 c240 241 295
301 295 323 0 15 -3 27 -7 27 -4 0 -137 -129 -295 -287 l-288 -288 0 65 0 64
295 296 c240 241 295 301 295 323 0 15 -3 27 -7 27 -4 0 -137 -129 -295 -287
l-288 -288 0 65 0 64 295 296 c240 241 295 301 295 323 0 15 -3 27 -7 27 -4 0
-137 -129 -295 -287 l-288 -288 0 65 0 64 295 296 c240 241 295 301 295 323 0
15 -3 27 -7 27 -4 0 -137 -129 -295 -287 l-288 -288 0 65 0 64 295 296 c240
241 295 301 295 323 0 15 -3 27 -7 27 -4 0 -144 -136 -310 -302 l-303 -303
-32 33 -32 32 342 343 c279 281 342 348 342 370 0 15 -3 27 -7 27 -4 0 -166
-159 -360 -352 l-353 -353 -32 33 -33 32 393 393 c322 323 392 398 392 420 0
15 -3 27 -7 27 -4 0 -189 -181 -410 -402 l-403 -403 -32 33 -33 32 443 443
c364 365 442 448 442 470 0 15 -3 27 -7 27 -4 0 -211 -204 -460 -452 l-453
-453 -32 33 -33 32 438 438 c240 241 437 441 437 445 0 4 -12 7 -27 7 -22 0
-103 -75 -455 -427 l-428 -428 -32 33 -33 32 388 388 c213 213 387 391 387
395 0 4 -12 7 -27 7 -22 0 -95 -68 -405 -377 l-378 -378 -32 33 -33 32 338
338 c185 186 337 341 337 345 0 4 -12 7 -27 7 -22 0 -87 -60 -355 -327 l-328
-327 -32 32 -33 32 288 288 c158 158 287 291 287 295 0 4 -12 7 -27 7 -21 0
-79 -53 -305 -277 l-278 -277 -32 32 -33 32 238 238 c130 131 237 241 237 245
0 4 -12 7 -27 7 -21 0 -72 -45 -255 -227 l-228 -227 -32 32 -32 32 187 188
c103 104 187 191 187 195 0 4 -12 7 -26 7 -21 0 -65 -38 -206 -177 l-178 -177
-32 32 -32 32 137 138 c75 76 137 142 137 145 0 4 -12 7 -26 7 -20 0 -57 -30
-155 -127 l-130 -127 -31 32 -32 31 87 89 c48 49 87 92 87 96 0 3 -11 6 -25 6
-18 0 -49 -23 -106 -77 l-80 -77 -31 32 -31 31 39 43 c37 41 38 43 16 46 -14
2 -38 -8 -58 -23 -26 -20 -39 -24 -47 -16 -6 6 -29 11 -50 11 -31 0 -38 3 -33
15 7 20 -32 20 -58 0 -13 -10 -43 -15 -84 -15 -53 0 -63 3 -58 15 7 20 -32 20
-58 0 -13 -10 -43 -15 -84 -15 -53 0 -63 3 -58 15 7 20 -32 20 -58 0 -13 -10
-43 -15 -84 -15 -53 0 -63 3 -58 15 7 20 -32 20 -58 0 -13 -10 -43 -15 -84
-15 -53 0 -63 3 -58 15 7 20 -32 20 -58 0 -13 -10 -43 -15 -84 -15 -53 0 -63
3 -58 15 7 20 -32 20 -58 0 -13 -10 -43 -15 -84 -15 -53 0 -63 3 -58 15 7 20
-32 20 -58 0 -13 -10 -43 -15 -84 -15 -53 0 -63 3 -58 15 7 20 -32 20 -58 0
-13 -10 -43 -15 -84 -15 -53 0 -63 3 -58 15 7 20 -32 20 -58 0 -13 -10 -43
-15 -84 -15 -53 0 -63 3 -58 15 7 20 -32 20 -58 0 -13 -10 -43 -15 -84 -15
-53 0 -63 3 -58 15 7 20 -32 20 -58 0 -13 -10 -43 -15 -84 -15 -53 0 -63 3
-58 15 8 22 -30 19 -62 -4 -15 -10 -47 -21 -70 -24 -24 -3 -66 -16 -93 -30
l-49 -24 40 43 c22 24 40 46 40 49 0 3 -12 5 -27 5 -22 0 -91 -64 -381 -352z
m753 -248 l-200 -200 -3 37 c-7 77 2 92 136 225 130 129 137 134 222 137 l45
1 -200 -200z m100 -100 l-300 -300 -3 62 -3 62 238 238 238 238 65 0 65 0
-300 -300z m100 -100 l-400 -400 -3 62 -3 62 338 338 338 338 65 0 65 0 -400
-400z m100 -100 l-500 -500 -3 62 -3 62 438 438 438 438 65 0 65 0 -500 -500z
m100 -100 l-600 -600 -3 62 -3 62 538 538 538 538 65 0 65 0 -600 -600z m100
-100 l-700 -700 -3 62 -3 62 638 638 638 638 65 0 65 0 -700 -700z m100 -100
l-800 -800 -3 62 -3 62 738 738 738 738 65 0 65 0 -800 -800z m100 -100 l-900
-900 -3 62 -3 62 838 838 838 838 65 0 65 0 -900 -900z m1055 878 c0 -17 -187
-210 -692 -715 l-693 -693 -48 0 c-26 0 -62 -7 -80 -16 -18 -9 296 313 698
715 l730 731 42 0 c38 0 43 -3 43 -22z m-592 -815 l-593 -593 -65 0 -65 0 655
655 655 655 3 -62 3 -62 -593 -593z m100 -100 l-493 -493 -65 0 -65 0 555 555
555 555 3 -62 3 -62 -493 -493z m100 -100 l-393 -393 -65 0 -65 0 455 455 455
455 3 -62 3 -62 -393 -393z m100 -100 l-293 -293 -65 0 -65 0 355 355 355 355
3 -62 3 -62 -293 -293z m95 -105 c-153 -154 -222 -216 -233 -212 -8 4 -30 12
-47 18 l-33 11 253 253 252 252 13 -52 13 -52 -218 -218z m74 -125 l-221 -222
-18 47 -18 47 212 212 211 211 28 -36 27 -37 -221 -222z m333 140 c2 -2 -200
-208 -450 -458 l-455 -455 -65 0 -65 0 190 185 c230 225 207 202 517 517 l252
257 35 -21 c20 -12 38 -23 41 -25z m133 -30 l39 -6 -438 -438 -439 -439 -65 0
-65 0 445 445 c292 292 452 445 465 445 11 0 37 -3 58 -7z m-198 -443 l-440
-440 -65 0 -65 0 440 440 440 440 65 0 65 0 -440 -440z m200 0 l-440 -440 -65
0 -65 0 440 440 440 440 65 0 65 0 -440 -440z m200 0 l-440 -440 -65 0 -65 0
440 440 440 440 65 0 65 0 -440 -440z m200 0 l-440 -440 -65 0 -65 0 440 440
440 440 65 0 65 0 -440 -440z m133 -67 l-373 -373 -65 0 -65 0 435 435 435
435 3 -62 3 -62 -373 -373z m100 -100 l-273 -273 -65 0 -65 0 335 335 335 335
3 -62 3 -62 -273 -273z m-2573 337 c-8 -16 -15 -51 -15 -77 l0 -48 -175 -175
-175 -175 0 65 0 65 187 187 c103 104 189 188 191 188 1 0 -4 -13 -13 -30z
m2648 -462 l-199 -199 -42 23 -42 23 238 238 237 237 3 -62 3 -62 -198 -198z
m-2613 250 l32 -31 -216 -216 -216 -216 0 65 0 65 182 182 c101 101 184 183
185 183 1 0 16 -14 33 -32z m-90 -353 l-305 -305 -3 62 -3 62 243 243 243 243
65 0 65 0 -305 -305z m100 -100 l-405 -405 -3 62 -3 62 343 343 343 343 65 0
64 0 -404 -405z m430 230 l-175 -175 -65 0 -65 0 175 175 175 175 65 0 65 0
-175 -175z m200 0 l-175 -175 -65 0 -65 0 175 175 175 175 65 0 65 0 -175
-175z m200 0 l-175 -175 -65 0 -65 0 175 175 175 175 65 0 65 0 -175 -175z
m1798 -202 l-173 -173 -5 44 c-3 25 -9 49 -13 53 -4 4 75 89 175 190 l183 183
3 -62 3 -62 -173 -173z m-160 -360 l-333 -333 -65 0 -65 0 395 395 395 395 3
-62 3 -62 -333 -333z m98 -102 l-236 -236 -61 3 -62 4 294 294 294 294 3 -62
3 -62 -235 -235z m-2612 214 c6 -16 -29 -56 -179 -205 l-185 -185 0 65 0 65
173 173 172 172 7 -32 c3 -18 9 -42 12 -53z m90 -79 l39 -18 -244 -244 -244
-244 -3 62 -3 62 203 203 c112 112 205 202 208 200 3 -2 23 -11 44 -21z m2575
-282 l-182 -182 -30 35 -30 34 209 210 209 209 3 -62 3 -62 -182 -182z m-2679
-79 l-345 -345 -3 62 -3 62 283 283 283 283 65 0 65 0 -345 -345z m370 170
c-140 -140 -180 -175 -202 -175 -83 0 -168 -82 -168 -162 0 -30 -19 -52 -175
-208 l-175 -175 0 65 0 65 382 382 383 383 65 0 65 0 -175 -175z m200 0 l-175
-175 -65 0 -65 0 175 175 175 175 65 0 65 0 -175 -175z m200 0 l-175 -175 -65
0 -65 0 175 175 175 175 65 0 65 0 -175 -175z m200 0 l-175 -175 -65 0 -65 0
175 175 175 175 65 0 65 0 -175 -175z m200 0 l-175 -175 -65 0 -65 0 175 175
175 175 65 0 65 0 -175 -175z m200 0 l-175 -175 -65 0 -65 0 175 175 175 175
65 0 65 0 -175 -175z m200 0 l-175 -175 -65 0 -65 0 175 175 175 175 65 0 65
0 -175 -175z m200 0 l-175 -175 -65 0 -65 0 175 175 175 175 65 0 65 0 -175
-175z m200 0 l-175 -175 -65 0 -65 0 175 175 175 175 65 0 65 0 -175 -175z
m200 0 l-175 -175 -65 0 -65 0 175 175 175 175 65 0 65 0 -175 -175z m298
-502 l-393 -393 -65 0 -65 0 175 175 c133 134 181 175 200 175 70 0 146 43
175 101 8 15 15 47 15 71 0 42 3 46 173 216 l172 172 3 -62 3 -62 -393 -393z
m100 -100 l-293 -293 -65 0 -65 0 355 355 355 355 3 -62 3 -62 -293 -293z m85
-115 l-209 -209 -29 15 c-17 9 -39 16 -50 16 -14 0 59 78 235 255 l255 255 3
-62 3 -62 -208 -208z m-2593 212 c0 -3 -92 -97 -205 -210 l-205 -205 0 65 0
65 178 178 177 177 27 -32 c15 -18 28 -35 28 -38z m157 -44 c1 -1 -126 -130
-282 -286 l-285 -285 0 65 0 65 228 228 227 228 55 -7 c30 -4 56 -7 57 -8z
m-177 -381 l-385 -385 -3 62 -3 62 323 323 323 323 65 0 65 0 -385 -385z m410
210 l-175 -175 -65 0 -65 0 175 175 175 175 65 0 65 0 -175 -175z m200 0
l-175 -175 -65 0 -65 0 175 175 175 175 65 0 65 0 -175 -175z m200 0 l-175
-175 -65 0 -65 0 175 175 175 175 65 0 65 0 -175 -175z m200 0 l-175 -175 -65
0 -65 0 175 175 175 175 65 0 65 0 -175 -175z m200 0 l-175 -175 -65 0 -65 0
175 175 175 175 65 0 65 0 -175 -175z m200 0 l-175 -175 -65 0 -65 0 175 175
175 175 65 0 65 0 -175 -175z m200 0 l-175 -175 -65 0 -65 0 175 175 175 175
65 0 65 0 -175 -175z m200 0 l-175 -175 -65 0 -65 0 175 175 175 175 65 0 65
0 -175 -175z m200 0 l-175 -175 -65 0 -65 0 175 175 175 175 65 0 65 0 -175
-175z m638 -162 l-173 -173 -8 32 c-5 18 -14 39 -20 46 -8 10 32 56 179 203
l189 189 3 -62 3 -62 -173 -173z m-175 -375 l-348 -348 -65 0 -65 0 180 180
c99 99 185 180 192 180 17 0 93 76 93 92 0 7 80 93 178 191 l177 177 3 -62 3
-62 -348 -348z m100 -100 l-248 -248 -65 0 -65 0 310 310 310 310 3 -62 3 -62
-248 -248z m-2753 48 l-148 -149 -22 43 -22 43 164 164 163 163 7 -57 7 -58
-149 -149z m2853 -148 l-148 -148 -65 0 -65 0 210 210 210 210 3 -62 3 -62
-148 -148z m-2634 229 l40 -23 -152 -152 -152 -152 -35 29 -35 30 145 145 c80
80 145 146 146 146 1 0 20 -10 43 -23z m60 -203 c-173 -173 -176 -175 -210
-169 -74 14 -74 14 96 185 l160 160 65 0 65 0 -176 -176z m201 1 l-175 -175
-65 0 -65 0 175 175 175 175 65 0 65 0 -175 -175z m200 0 l-175 -175 -65 0
-65 0 175 175 175 175 65 0 65 0 -175 -175z m200 0 l-175 -175 -65 0 -65 0
175 175 175 175 65 0 65 0 -175 -175z m200 0 l-175 -175 -65 0 -65 0 175 175
175 175 65 0 65 0 -175 -175z m200 0 l-175 -175 -65 0 -65 0 175 175 175 175
65 0 65 0 -175 -175z m200 0 l-175 -175 -65 0 -65 0 175 175 175 175 65 0 65
0 -175 -175z m200 0 l-175 -175 -65 0 -65 0 175 175 175 175 65 0 65 0 -175
-175z m200 0 l-175 -175 -65 0 -65 0 175 175 175 175 65 0 65 0 -175 -175z
m200 0 l-175 -175 -65 0 -65 0 175 175 175 175 65 0 65 0 -175 -175z m200 0
l-175 -175 -65 0 -65 0 175 175 175 175 65 0 65 0 -175 -175z"/>
<path d="M4796 350 c-174 -173 -322 -323 -327 -332 -8 -15 -5 -18 17 -18 23 0
80 52 312 282 156 156 293 295 303 311 11 15 19 37 17 50 -4 18 -54 -28 -322
-293z"/>
<path d="M4896 250 c-119 -118 -222 -223 -227 -232 -8 -15 -5 -18 17 -18 21 0
65 37 211 183 205 202 226 227 221 260 -3 19 -37 -11 -222 -193z"/>
<path d="M4996 150 c-136 -133 -149 -150 -111 -150 18 0 49 23 111 82 102 98
127 130 122 161 -3 19 -19 7 -122 -93z"/>
</g>
</svg>
